<?xml version="1.0" standalone="no"?><!-- Generator: Adobe Fireworks CS5, Export SVG Extension by Aaron Beall (http://fireworks.abeall.com) . Version: 0.6.1  --><!DOCTYPE svg PUBLIC "-//W3C//DTD SVG 1.1//EN" "http://www.w3.org/Graphics/SVG/1.1/DTD/svg11.dtd"><svg id="Untitled-Page%201" viewBox="0 0 352 89" style="background-color:#ffffff00" version="1.1"	xmlns="http://www.w3.org/2000/svg" xmlns:xlink="http://www.w3.org/1999/xlink" xml:space="preserve"	x="0px" y="0px" width="352px" height="89px">	<defs>		<linearGradient id="gradient1" x1="246.2559%" y1="-6.6723%" x2="276.1056%" y2="113.4825%">			<stop stop-color="#fcc55f" stop-opacity="1" offset="0%"/>			<stop stop-color="#f0ad2e" stop-opacity="1" offset="100%"/>		</linearGradient>		<linearGradient id="gradient2" x1="161.1444%" y1="-46.6918%" x2="195.2033%" y2="136.7564%">			<stop stop-color="#fcc55f" stop-opacity="1" offset="0%"/>			<stop stop-color="#f0ad2e" stop-opacity="1" offset="100%"/>		</linearGradient>		<linearGradient id="gradient3" x1="95.7206%" y1="-46.3151%" x2="141.6899%" y2="139.8287%">			<stop stop-color="#fcc55f" stop-opacity="1" offset="0%"/>			<stop stop-color="#f0ad2e" stop-opacity="1" offset="100%"/>		</linearGradient>		<linearGradient id="gradient4" x1="10.849%" y1="-2.7373%" x2="51.215%" y2="116.7593%">			<stop stop-color="#fcc55f" stop-opacity="1" offset="0%"/>			<stop stop-color="#f0ad2e" stop-opacity="1" offset="100%"/>		</linearGradient>		<linearGradient id="gradient5" x1="-127.2453%" y1="-4.2291%" x2="-64.1233%" y2="122.7009%">			<stop stop-color="#fcc55f" stop-opacity="1" offset="0%"/>			<stop stop-color="#f0ad2e" stop-opacity="1" offset="100%"/>		</linearGradient>		<linearGradient id="gradient6" x1="-132.5096%" y1="-45.3317%" x2="-92.4282%" y2="131.653%">			<stop stop-color="#fcc55f" stop-opacity="1" offset="0%"/>			<stop stop-color="#f0ad2e" stop-opacity="1" offset="100%"/>		</linearGradient>		<linearGradient id="gradient7" x1="-213.1006%" y1="-33.6923%" x2="-173.4494%" y2="98.6819%">			<stop stop-color="#fcc55f" stop-opacity="1" offset="0%"/>			<stop stop-color="#f0ad2e" stop-opacity="1" offset="100%"/>		</linearGradient>		<linearGradient id="gradient8" x1="157.5809%" y1="-7.2762%" x2="157.5809%" y2="123.5145%">			<stop stop-color="#ffffff" stop-opacity="1" offset="0%"/>			<stop stop-color="#cccccc" stop-opacity="1" offset="100%"/>		</linearGradient>		<linearGradient id="gradient9" x1="150.5988%" y1="-4.2291%" x2="150.5988%" y2="124.0529%">			<stop stop-color="#ffffff" stop-opacity="1" offset="0%"/>			<stop stop-color="#cccccc" stop-opacity="1" offset="100%"/>		</linearGradient>		<linearGradient id="gradient10" x1="51.7075%" y1="-33.6923%" x2="51.7075%" y2="100.0919%">			<stop stop-color="#ffffff" stop-opacity="1" offset="0%"/>			<stop stop-color="#cccccc" stop-opacity="1" offset="100%"/>		</linearGradient>		<linearGradient id="gradient11" x1="-55.4369%" y1="-37.6958%" x2="-55.4369%" y2="125.1678%">			<stop stop-color="#ffffff" stop-opacity="1" offset="0%"/>			<stop stop-color="#cccccc" stop-opacity="1" offset="100%"/>		</linearGradient>		<linearGradient id="gradient12" x1="-144.9982%" y1="-46.3151%" x2="-144.9982%" y2="141.8113%">			<stop stop-color="#ffffff" stop-opacity="1" offset="0%"/>			<stop stop-color="#cccccc" stop-opacity="1" offset="100%"/>		</linearGradient>	</defs>	<g id="Layer%201">		<g>			<path d="M 8.3936 75.4578 C 8.8436 76.1007 12.4435 77.9375 14.3334 77.9375 C 15.1433 77.9375 15.6833 77.5701 15.7733 76.8354 C 15.7733 76.2843 15.8633 75.5496 15.9533 74.9067 L 16.8533 74.9067 C 31.5227 74.9067 44.4375 65.5704 44.4375 52.5451 C 44.4375 45.2792 39.4262 39.4311 32.5126 36.2412 C 39.5157 32.7855 43.5429 27.1146 43.5429 20.5576 C 43.5429 11.2462 35.7525 3 23.063 3 C 6.1437 3 0.2939 18.3003 0.2939 18.3003 C 0.4739 19.523 5.3337 22.0625 6.1437 22.0625 C 6.7737 22.0625 9.2936 18.3944 9.6536 17.83 C 9.8336 17.5479 9.0236 17.0776 9.2036 16.7954 C 11.9035 12.5629 16.7633 7.8598 25.9429 7.8598 C 31.7927 7.8598 36.5625 11.0581 36.5625 17.0776 C 36.5625 24.9881 31.5227 31.0134 23.513 33.7602 C 22.703 33.6716 21.8031 33.583 20.9931 33.583 C 22.2531 24.8108 23.423 16.8895 24.323 13.2213 C 21.8031 10.8699 18.1132 10.3997 17.3033 13.8797 C 15.6833 19.523 11.3635 50.2413 9.0236 69.3043 C 7.6736 69.1206 6.4137 68.9375 6.0537 68.9375 C 5.3337 70.6819 4.5238 71.6922 5.9637 73.8964 C 6.2337 74.3557 7.2237 74.6312 8.4836 74.8149 C 8.3936 74.9986 8.3936 75.2741 8.3936 75.4578 L 8.3936 75.4578 ZM 24.413 38.8995 C 30.8027 39.1653 36.5625 42.0007 36.5625 48.8235 C 36.5625 60.3426 28.5528 68.2287 16.4933 69.5798 C 17.3932 61.6717 18.8332 50.2413 20.1831 39.5197 C 21.6231 39.3425 23.063 39.1653 24.413 38.8995 L 24.413 38.8995 Z" fill="url(#gradient1)"/>			<path d="M 68.3351 64.3221 C 68.515 66.3868 70.675 70 74.8148 70 C 81.6545 70 85.3444 60.156 85.3444 55.4517 C 85.3444 52.7889 82.7345 53.0552 82.7345 53.0552 C 82.1045 58.3808 80.8445 64.1502 76.1647 64.1502 C 73.1049 64.1502 72.3849 61.3987 72.3849 57.3157 C 72.3849 50.3036 74.6348 41.0725 77.4247 31.1314 C 77.9647 29.0899 74.4548 29.0011 73.6448 28.7348 C 73.3515 28.6896 73.4375 28.1675 73.4375 27.7324 C 73.4375 25.0201 70.8594 20.9175 64.9571 20.9175 C 54.2526 20.9175 46.6562 36.9566 46.6562 52.7074 C 46.6562 63.3239 51.7815 69.9375 58.4464 69.9375 C 62.8166 69.9375 66.4733 66.6307 67.8515 63.585 L 68.3351 64.3221 L 68.3351 64.3221 ZM 54.3438 56.5363 C 54.3438 47.3991 58.3572 26.605 64.8679 26.605 C 66.5625 26.605 66.5625 28.6896 66.5625 29.4728 C 66.5625 32.6056 65.403 35.6513 63.5301 38.1749 C 64.7644 39.8299 67.6151 40.3625 67.6151 40.3625 C 67.6151 43.5578 62.805 64.7522 57.5501 64.7522 C 55.2344 64.7522 54.3438 62.6413 54.3438 57.1382 L 54.3438 56.5363 L 54.3438 56.5363 Z" fill="url(#gradient2)"/>			<path d="M 89.8955 41.3286 C 90.139 35.9162 91.1945 29.1278 91.4375 24.174 C 91.4375 24.174 88.9212 22.0625 86.8102 22.0625 C 84.0496 22.0625 83.8061 30.8707 83.5625 39.9526 C 82.5469 59.257 81.5625 62.5868 81.5625 65.1967 C 81.5625 67.1767 87.3795 69.6965 89.4375 68.4366 C 89.6175 53.6772 93.9373 43.4944 95.5573 38.6683 C 95.9172 42.652 97.2672 45.9375 102.577 45.9375 C 107.2568 45.9375 110.0467 41.0534 110.2267 37.8427 C 110.2267 37.2005 109.4167 36.6501 108.7867 36.6501 C 108.2467 36.6501 107.1668 42.0625 103.5669 42.0625 C 101.6037 42.0625 100.3438 40.5947 100.3438 39.3104 C 100.4421 32.6137 104.3438 27.2013 104.3438 23.8071 C 104.3438 21.9725 103.3459 21.0726 101.4402 20.6226 C 98.8087 19.9926 96.4493 20.7126 95.8141 22.8897 C 94.5437 27.4765 92.7288 35.7327 90.3695 41.6038 L 89.8955 41.3286 L 89.8955 41.3286 Z" fill="url(#gradient3)"/>			<path d="M 105.5625 67.6806 C 105.7302 69.6605 105.8979 70.0205 107.491 70.6505 C 107.994 70.8305 110.0064 71.0105 111.2641 71.2805 C 111.851 71.3705 112.5275 70.6505 112.4375 68.4006 C 112.1026 62.2808 112.1864 55.2611 112.7075 49.4114 C 116.4873 53.7312 124.047 63.9008 130.5268 74.2504 C 131.6067 75.9603 132.7767 75.3303 133.4066 75.1503 C 134.8466 74.7003 136.3765 74.3403 137.4565 73.6204 C 138.1765 73.1704 138.4464 72.1804 137.4565 70.6505 C 129.8968 59.041 123.597 51.8413 117.2073 43.2916 C 122.3371 36.3619 131.9667 28.2622 137.2765 23.9424 C 137.7265 22.2325 136.4665 21.0625 134.9366 21.0625 C 128.4568 21.0625 117.9273 32.582 113.7874 37.6218 C 114.6874 32.4021 117.3873 14.5865 119.1872 4.41 C 119.4572 2.9298 119.7272 2.1897 118.2873 1.357 C 116.7573 0.4319 114.7774 0.0625 113.0675 0.0625 C 112.6175 0.0625 111.7672 0.3394 111.5156 2.5597 C 109.8387 15.6967 105.8979 40.2317 105.5625 54.0012 C 105.3825 61.8309 105.4725 65.2507 105.5625 67.6806 L 105.5625 67.6806 Z" fill="url(#gradient4)"/>			<path d="M 147.1872 16.7494 C 152.6244 16.7494 154.4375 11.4396 154.4375 8.5597 C 154.4375 6.1298 153.1422 5.1399 151.8476 4.4199 C 152.4518 1.54 151.1572 1 148.9996 1 C 144.6844 1 143.5625 8.5597 143.5625 11.0796 C 143.5625 15.1295 145.8064 16.7494 147.1872 16.7494 L 147.1872 16.7494 ZM 135.5625 61.4824 C 135.5625 68.5498 137.9644 71.9375 143.7351 71.9375 C 153.2136 71.9375 156.4375 61.9398 156.4375 56.1768 C 156.4375 52.5177 153.124 53.4325 153.124 53.4325 C 152.8552 57.0916 151.2424 67.0625 145.6872 67.0625 C 144.2536 67.0625 142.9993 65.4159 142.9993 62.0313 C 142.9097 54.8961 147.0312 37.1497 149.7192 27.0873 C 150.5256 23.9771 142.9993 23.7027 143.1785 23.7027 C 142.5513 23.7027 141.8345 23.8856 141.5657 24.8919 C 139.7737 31.3867 135.5625 51.8774 135.5625 61.4824 L 135.5625 61.4824 Z" fill="url(#gradient5)"/>			<path d="M 169.8861 38.7875 C 168.9924 43.3447 167.5625 52.6376 167.5625 56.4799 C 167.5625 63.7177 169.2605 69.9249 175.3377 69.9249 C 181.5937 69.9249 185.4375 63.2709 185.4375 59.4286 C 185.4375 57.1947 183.4705 57.016 183.4705 57.016 C 182.7555 59.3393 180.9681 64.0751 178.0189 64.0751 C 175.5898 64.3008 174.4198 62.0547 174.4198 57.4727 C 174.4198 45.5235 179.1897 33.8438 179.9096 24.6797 C 180.1796 22.1875 176.0398 21.0625 173.6099 21.0625 C 172.7999 21.0625 171.9899 21.0625 171.63 21.625 C 166.5957 30.6992 163.1956 41.3906 159.7954 51.3633 L 159.4375 51.3633 C 159.4375 42.4688 161.9429 34.1133 163.0166 25.4883 C 163.285 23.2422 161.2271 23.0625 160.1533 23.0625 C 154.825 23.0625 152.5625 41.1211 152.5625 60.2578 C 152.5625 67.086 153.6068 71.9375 157.5227 71.9375 C 159.312 71.4548 160.4375 70.1049 160.4375 70.1049 C 160.3504 61.9306 165.1387 46.7402 168.8401 38.7875 L 169.8861 38.7875 L 169.8861 38.7875 Z" fill="url(#gradient6)"/>			<path d="M 185.2947 76.9396 C 181.1226 76.2179 178.9626 79.7361 180.1326 82.6228 C 181.2126 85.2389 186.9692 88.9375 193.865 88.9375 C 198.9382 88.9375 204.5648 81.6305 207.9016 66.1217 C 210.8737 52.3641 211.9536 38.7254 213.0336 31.6832 C 213.3036 29.6329 209.7937 29.2763 209.2538 29.2763 C 209.2538 29.2763 209.3437 28.5632 209.3437 28.0284 C 209.3437 22.1299 205.1971 20.9175 201.5209 20.9175 C 189.8987 20.9175 182.5625 34.9814 182.5625 51.1161 C 182.5625 61.9914 187.1455 69 194.4184 69 C 198.0158 69 201.0597 63.9861 202.6277 61.8131 C 200.7829 72.2487 195.9865 81.8109 191.8357 83.6151 C 190.4521 82.8032 186.3523 79.5557 185.2947 76.9396 L 185.2947 76.9396 ZM 189.4375 55.0383 C 189.4375 45.6784 194.1417 26.605 200.8752 26.605 C 202.6277 26.605 203.6424 28.3849 203.6424 30.2569 C 203.6424 32.3963 203.1812 37.1208 202.1665 39.3494 C 203.4579 40.7756 204.6562 40.6865 204.6562 40.6865 C 204.0113 49.6007 198.8459 63.1502 193.9572 63.1502 C 191.559 63.1502 189.4375 60.5651 189.4375 55.0383 L 189.4375 55.0383 Z" fill="url(#gradient7)"/>		</g>		<g>			<path d="M 217.7698 17.2819 C 222.1796 16.202 226.5894 15.302 230.7293 14.672 C 227.3994 30.8714 224.1595 54.5404 222.4496 69.9298 C 223.0796 70.8298 229.2893 74.2496 230.0993 71.7297 C 230.0993 71.7297 234.5991 64.17 234.0591 62.1901 C 233.7892 61.2901 231.7192 62.3701 230.9993 62.5501 C 232.8892 44.8208 235.0491 29.6114 237.929 13.6821 C 244.6787 12.9621 250.6185 12.6021 254.7583 12.5121 C 255.9283 12.5121 256.6482 11.7022 256.6482 11.0722 C 256.6482 10.3522 253.8583 7.0224 253.4984 6.5724 C 252.7784 5.6724 249.9885 5.4024 246.6586 5.6724 L 239.2789 6.3024 L 239.4589 5.5824 C 238.199 4.2325 236.0391 3.4225 233.6092 3.0625 C 233.2492 4.3225 232.7992 5.6724 232.4392 7.2023 C 226.0495 8.1023 218.9398 9.4523 213.9 11.5222 C 212.37 12.1521 215.4299 17.8219 217.7698 17.2819 L 217.7698 17.2819 Z" fill="url(#gradient8)"/>			<path d="M 261.6873 16.7494 C 267.1244 16.7494 268.9375 11.4396 268.9375 8.5597 C 268.9375 6.1298 267.6422 5.1399 266.3477 4.4199 C 266.9518 1.54 265.6572 1 263.4996 1 C 259.1844 1 258.0625 8.5597 258.0625 11.0796 C 258.0625 15.1295 260.3064 16.7494 261.6873 16.7494 L 261.6873 16.7494 ZM 250.0625 61.4824 C 250.0625 68.5498 252.4644 71.9375 258.2351 71.9375 C 267.7136 71.9375 270.9375 61.9398 270.9375 56.1768 C 270.9375 52.5177 267.624 53.4325 267.624 53.4325 C 267.3552 57.0916 265.7424 67.0625 260.1873 67.0625 C 258.7537 67.0625 257.4993 65.4159 257.4993 62.0313 C 257.4097 54.8961 261.5313 37.1497 264.2192 27.0873 C 265.0256 23.9771 257.4993 23.7027 257.6785 23.7027 C 257.0513 23.7027 256.3345 23.8856 256.0657 24.8919 C 254.2737 31.3867 250.0625 51.8774 250.0625 61.4824 L 250.0625 61.4824 Z" fill="url(#gradient9)"/>			<path d="M 269.7947 76.9396 C 265.6226 76.2179 263.4626 79.7361 264.6326 82.6228 C 265.7126 85.2389 271.4692 88.9375 278.365 88.9375 C 283.4382 88.9375 289.0648 81.6305 292.4016 66.1217 C 295.3737 52.3641 296.4536 38.7254 297.5336 31.6832 C 297.8036 29.6329 294.2937 29.2763 293.7538 29.2763 C 293.7538 29.2763 293.8438 28.5632 293.8438 28.0284 C 293.8438 22.1299 289.6971 20.9175 286.0209 20.9175 C 274.3987 20.9175 267.0625 34.9814 267.0625 51.1161 C 267.0625 61.9914 271.6455 69 278.9184 69 C 282.5157 69 285.5597 63.9861 287.1277 61.8131 C 285.283 72.2487 280.4865 81.8109 276.3357 83.6151 C 274.9521 82.8032 270.8523 79.5557 269.7947 76.9396 L 269.7947 76.9396 ZM 273.9375 55.0383 C 273.9375 45.6784 278.6417 26.605 285.3752 26.605 C 287.1277 26.605 288.1424 28.3849 288.1424 30.2569 C 288.1424 32.3963 287.6812 37.1208 286.6665 39.3494 C 287.9579 40.7756 289.1563 40.6865 289.1563 40.6865 C 288.5113 49.6007 283.3459 63.1502 278.4572 63.1502 C 276.059 63.1502 273.9375 60.5651 273.9375 55.0383 L 273.9375 55.0383 Z" fill="url(#gradient10)"/>			<path d="M 296.9911 57.2495 C 296.9911 68.8359 303.5324 74.9375 310.8369 74.9375 C 320.376 74.9375 324.9349 61.817 324.9349 53.7072 C 324.9349 51.0759 323.765 49.1563 322.325 49.1563 C 321.0651 49.1563 321.0651 50.2121 321.0651 50.2121 C 321.0651 56.4105 316.2445 68.0625 309.2242 68.0625 C 304.3862 68.0625 302.6786 64.7999 302.6786 60.4188 C 302.6786 52.8683 304.3862 47.9098 304.3862 47.9098 C 304.3862 47.9098 305.8091 51.8438 309.8883 51.8438 C 316.9998 51.8438 319.9375 41.3212 319.9375 29.9247 C 319.9375 21.7335 316.2445 19.0625 312.924 19.0625 C 304.5759 19.0625 296.9911 41.9444 296.9911 57.2495 L 296.9911 57.2495 ZM 305.5245 44.0813 C 306.5681 37.5817 309.2242 30.2808 311.501 25.4729 C 312.0702 24.2264 312.5445 23.8703 312.924 23.8703 C 313.3983 23.8703 314.0625 24.3155 314.0625 28.0549 C 314.0625 36.7222 311.2164 47.0625 307.8961 47.0625 C 305.9989 47.0625 305.5245 44.7748 305.5245 44.7748 L 305.5245 44.0813 L 305.5245 44.0813 Z" fill="url(#gradient11)"/>			<path d="M 331.3954 41.3286 C 331.639 35.9162 332.6945 29.1278 332.9375 24.174 C 332.9375 24.174 330.4211 22.0625 328.3102 22.0625 C 325.5496 22.0625 325.3061 30.8707 325.0625 39.9526 C 324.0469 59.257 323.0625 62.5868 323.0625 65.1967 C 323.0625 67.1767 328.8795 69.6965 330.9375 68.4366 C 331.1175 53.6772 335.4373 43.4944 337.0573 38.6683 C 337.4172 42.652 338.7672 45.9375 344.077 45.9375 C 348.7568 45.9375 351.5467 41.0534 351.7267 37.8427 C 351.7267 37.2005 350.9167 36.6501 350.2867 36.6501 C 349.7467 36.6501 348.6668 42.0625 345.0669 42.0625 C 343.1037 42.0625 341.8438 40.5947 341.8438 39.3104 C 341.9421 32.6137 345.8438 27.2013 345.8438 23.8071 C 345.8438 21.9725 344.8459 21.0726 342.9402 20.6226 C 340.3087 19.9926 337.9493 20.7126 337.3141 22.8897 C 336.0437 27.4765 334.2288 35.7327 331.8695 41.6038 L 331.3954 41.3286 L 331.3954 41.3286 Z" fill="url(#gradient12)"/>		</g>	</g></svg>